<?xml version="1.0" encoding="utf-8"?>
<!DOCTYPE svg PUBLIC "-//W3C//DTD SVG 1.0//EN" "http://www.w3.org/TR/2001/REC-SVG-20010904/DTD/svg10.dtd">
<svg version="1.0" xmlns="http://www.w3.org/2000/svg" width="113px" height="70px" viewBox="0 0 113 70" preserveAspectRatio="xMidYMid meet">
 <g fill="#000000" stroke="#ffffff" stroke-width="0.5">
  <path d="M47.60 69.65 c0.35 -0.90 14.65 -22 15.75 -23.30 l1.15 -1.45 0 -0.80 0 -0.80 -3.05 -4.65 -3.10 -4.65 -0.55 0.05 -0.55 0 -6.25 8.75 c-3.45 4.85 -7.20 10.15 -8.40 11.85 -2.55 3.75 -3.45 4.85 -3.95 4.85 -0.25 0 -1.30 -1.40 -2.35 -3.15 -1.10 -1.70 -5.70 -8.85 -10.30 -15.85 -11.55 -17.70 -21 -32.25 -22.95 -35.35 -0.90 -1.40 -1.95 -2.85 -2.35 -3.15 -0.35 -0.35 -0.70 -0.95 -0.70 -1.30 l0 -0.70 9.15 0.05 9.10 0 4.75 7.45 c2.60 4.10 5.10 7.95 5.50 8.50 0.40 0.55 2.90 4.40 5.50 8.50 l4.75 7.45 0.50 0 0.50 0.05 1.40 -2.15 c0.75 -1.15 2.50 -3.55 3.85 -5.35 1.40 -1.80 2.75 -3.75 3.10 -4.35 l0.55 -1.15 -5.75 -8.60 c-3.15 -4.75 -5.85 -9.05 -6.05 -9.50 l-0.30 -0.90 9.10 0 9.15 0 3.35 5.35 c3.05 4.85 13.85 21.50 15.50 23.85 l0.65 0.95 3.35 -4.95 c1.90 -2.75 6.45 -9.50 10.25 -15.05 l6.80 -10.15 9.15 0 9.15 0 0 0.70 c0 0.40 -0.25 0.90 -0.50 1.05 -0.30 0.20 -3.20 4.30 -6.45 9.15 -3.30 4.90 -7.30 10.75 -8.90 13.10 -1.60 2.35 -5.75 8.40 -9.15 13.50 -3.40 5.10 -6.45 9.50 -6.75 9.80 -0.25 0.30 -3.10 4.45 -6.25 9.20 -3.15 4.75 -6 8.90 -6.25 9.20 -0.30 0.30 -1.05 1.40 -1.75 2.40 l-1.25 1.90 -9.15 0 -9.20 0 0.20 -0.35z"/>
 </g>
</svg>